HIERARCHY
ROOT SpineBase
{
  OFFSET 0.000000 0.000000 0.000000
  CHANNELS 6 Xposition Yposition Zposition Zrotation Xrotation Yrotation
  JOINT SpineMid
  {
    OFFSET 0.000000 34.552679 0.000000
    CHANNELS 3 Zrotation Xrotation Yrotation
    JOINT SpineShoulder
    {
      OFFSET -0.365775 25.556437 -0.883259
      CHANNELS 3 Zrotation Xrotation Yrotation
      JOINT Neck
      {
        OFFSET -0.246261 8.426559 -0.651728
        CHANNELS 3 Zrotation Xrotation Yrotation
        JOINT Head
        {
          OFFSET 0.626430 10.789181 2.660583
          CHANNELS 3 Zrotation Xrotation Yrotation
          End Site
          {
            OFFSET 0 0 0
          }
        }
      }
      JOINT ShoulderLeft
      {
        OFFSET -16.770900 -7.712418 -0.915680
        CHANNELS 3 Zrotation Xrotation Yrotation
        JOINT ElbowLeft
        {
          OFFSET -4.662159 -24.485536 7.695432
          CHANNELS 3 Zrotation Xrotation Yrotation
          JOINT WristLeft
          {
            OFFSET 4.842543 -18.274320 7.546447
            CHANNELS 3 Zrotation Xrotation Yrotation
            JOINT HandLeft
            {
              OFFSET 1.203747 -4.544298 5.730415
              CHANNELS 3 Zrotation Xrotation Yrotation
              JOINT HandTipLeft
              {
                OFFSET -0.197485 -0.122575 -1.008359
                CHANNELS 3 Zrotation Xrotation Yrotation
                End Site
                {
                  OFFSET 0 0 0
                }
              }
              JOINT ThumbLeft
              {
                OFFSET -0.416147 0.579105 -2.158515
                CHANNELS 3 Zrotation Xrotation Yrotation
                End Site
                {
                  OFFSET 0 0 0
                }
              }
            }
          }
        }
      }
      JOINT ShoulderRight
      {
        OFFSET 15.029918 -6.858618 -9.133509
        CHANNELS 3 Zrotation Xrotation Yrotation
        JOINT ElbowRight
        {
          OFFSET 8.497008 -23.022039 2.260582
          CHANNELS 3 Zrotation Xrotation Yrotation
          JOINT WristRight
          {
            OFFSET -2.381230 20.365375 -7.805728
            CHANNELS 3 Zrotation Xrotation Yrotation
            JOINT HandRight
            {
              OFFSET -2.742662 4.565527 4.033820
              CHANNELS 3 Zrotation Xrotation Yrotation
              JOINT HandTipRight
              {
                OFFSET -1.372596 3.988029 0.459622
                CHANNELS 3 Zrotation Xrotation Yrotation
                End Site
                {
                  OFFSET 0 0 0
                }
              }
              JOINT ThumbRight
              {
                OFFSET 0.549409 1.055967 -1.146075
                CHANNELS 3 Zrotation Xrotation Yrotation
                End Site
                {
                  OFFSET 0 0 0
                }
              }
            }
          }
        }
      }
    }
  }
  JOINT HipLeft
  {
    OFFSET -7.483799 0.856783 -1.909387
    CHANNELS 3 Zrotation Xrotation Yrotation
    JOINT KneeLeft
    {
      OFFSET -1.431693 -33.805954 4.331069
      CHANNELS 3 Zrotation Xrotation Yrotation
      JOINT AnkleLeft
      {
        OFFSET -0.763530 -30.012763 1.622275
        CHANNELS 3 Zrotation Xrotation Yrotation
        JOINT FootLeft
        {
          OFFSET -3.115406 -2.651816 -12.614865
          CHANNELS 3 Zrotation Xrotation Yrotation
          End Site
          {
            OFFSET 0 0 0
          }
        }
      }
    }
  }
  JOINT HipRight
  {
    OFFSET 5.225120 1.517803 -5.532180
    CHANNELS 3 Zrotation Xrotation Yrotation
    JOINT KneeRight
    {
      OFFSET 3.562987 -30.867530 -1.814103
      CHANNELS 3 Zrotation Xrotation Yrotation
      JOINT AnkleRight
      {
        OFFSET 0.209425 -34.366444 -4.547822
        CHANNELS 3 Zrotation Xrotation Yrotation
        JOINT FootRight
        {
          OFFSET -3.381572 -2.591965 -12.499731
          CHANNELS 3 Zrotation Xrotation Yrotation
          End Site
          {
            OFFSET 0 0 0
          }
        }
      }
    }
  }
}
MOTION
Frames: 5
Frame Time: 0.033333
78.330024 72.848039 265.249553 2.809791 2.324964 19.013461 0.121325 0.351865 -18.944218 -0.124310 0.139449 0.148936 -4.150370 4.141462 -0.375599 0.000000 0.000000 0.000000 1.435365 -1.076043 0.754849 -4.154499 -1.695001 -1.033027 -0.000000 0.000000 0.000000 -0.000000 0.000000 0.000000 0.000000 0.000000 0.000000 0.000000 0.000000 0.000000 -0.089687 -1.348551 0.536613 -5.219452 -5.013580 -2.360295 0.702192 10.810086 6.968460 -3.895373 -35.780573 -17.478311 0.000000 0.000000 0.000000 0.000000 0.000000 0.000000 -2.673944 -2.046227 -18.945006 0.819788 2.380872 -0.135361 -2.506828 -1.922732 3.428007 0.000000 0.000000 0.000000 -1.592695 -1.004274 -19.069362 -0.814481 -1.746721 -0.110230 -1.563174 0.907573 3.660998 0.000000 0.000000 0.000000
78.232652 72.864064 265.252086 3.008602 2.587741 18.868261 0.144744 0.424580 -18.801064 -0.140989 0.119191 0.160129 -4.225774 4.418522 -0.471630 0.000000 0.000000 0.000000 1.667559 -1.008079 0.801623 -4.577395 -2.070888 -1.112970 -0.000000 0.000000 0.000000 -0.000000 0.000000 0.000000 0.000000 0.000000 0.000000 0.000000 0.000000 0.000000 0.109579 -1.557533 0.605315 -5.786911 -5.459001 -2.571789 0.949099 13.740533 8.290594 -3.619859 -46.917188 -22.407497 0.000000 0.000000 0.000000 0.000000 0.000000 0.000000 -2.875819 -2.339992 -18.798979 0.579176 2.489874 -0.157517 -2.369635 -1.904570 3.410137 0.000000 0.000000 0.000000 -1.530325 -1.161068 -18.933132 -1.254267 -1.965405 -0.096394 -1.438225 1.038322 3.621447 0.000000 0.000000 0.000000
78.170025 72.859472 265.245362 3.187598 2.800929 18.823966 0.112898 0.411579 -18.759283 -0.150075 0.045926 0.168005 -4.395529 4.309211 -0.489487 0.000000 0.000000 0.000000 1.774487 -0.917564 0.830950 -4.834054 -2.271200 -1.166860 -0.000000 0.000000 0.000000 -0.000000 0.000000 0.000000 0.000000 0.000000 0.000000 0.000000 0.000000 0.000000 0.098766 -1.591952 0.636379 -5.912036 -5.909420 -2.664001 0.661651 14.315219 8.679576 -2.430292 -48.634981 -22.876494 0.000000 0.000000 0.000000 0.000000 0.000000 0.000000 -3.104774 -2.541529 -18.764559 0.353250 2.107887 -0.152619 -2.175603 -1.416767 3.379671 0.000000 0.000000 0.000000 -1.385270 -1.349493 -18.903186 -1.844933 -2.124454 -0.065368 -1.227335 1.154962 3.557763 0.000000 0.000000 0.000000
78.107942 72.879289 265.231322 3.292917 3.000926 19.003003 -0.001664 0.250671 -18.940916 -0.172656 -0.161543 0.167235 -4.248369 5.082377 -0.546538 0.000000 0.000000 0.000000 1.991858 -0.387742 0.829888 -5.082473 -2.598871 -1.200092 -0.000000 0.000000 0.000000 -0.000000 0.000000 0.000000 0.000000 0.000000 0.000000 0.000000 0.000000 0.000000 -0.231218 -1.625583 0.513733 -6.273267 -6.483731 -2.936166 0.520326 14.642811 9.480589 -6.042778 -43.198776 -22.899913 0.000000 0.000000 0.000000 0.000000 0.000000 0.000000 -3.331411 -2.625901 -18.970612 0.261845 1.308394 -0.118841 -2.073946 -0.618278 3.609161 0.000000 0.000000 0.000000 -1.127504 -1.622484 -19.099483 -2.502575 -2.211951 -0.024509 -1.065295 1.230516 3.764675 0.000000 0.000000 0.000000
78.181543 72.838470 265.268407 3.292810 2.593332 19.329478 -0.299068 -0.345378 -19.257427 -0.113445 -0.302890 0.154370 -3.293697 6.233052 -0.710315 0.000000 0.000000 0.000000 1.878862 0.648552 0.787108 -4.935734 -2.428923 -1.176799 -0.000000 0.000000 0.000000 -0.000000 0.000000 0.000000 0.000000 0.000000 0.000000 0.000000 0.000000 0.000000 0.086976 -0.790540 0.430682 -6.163792 -5.499061 -2.548185 0.787741 9.811940 6.504885 -1.429042 -31.836112 -15.096604 0.000000 0.000000 0.000000 0.000000 0.000000 0.000000 -3.317922 -2.069305 -19.303223 0.025353 0.369136 -0.081654 -1.731660 0.025579 4.082432 0.000000 0.000000 0.000000 -0.698334 -1.332153 -19.427180 -3.094289 -2.190711 0.018727 -0.823674 0.981001 4.199024 0.000000 0.000000 0.000000
